<svg width="662" height="479" xmlns="http://www.w3.org/2000/svg" xmlns:xlink="http://www.w3.org/1999/xlink" xml:space="preserve" overflow="hidden"><defs><clipPath id="clip0"><path d="M1036.2 730.672 1357.17 654.006 1433.84 974.977 1112.87 1051.64Z" fill-rule="evenodd" clip-rule="evenodd"/></clipPath><clipPath id="clip1"><path d="M1036.2 730.672 1357.17 654.006 1433.84 974.977 1112.87 1051.64Z" fill-rule="evenodd" clip-rule="evenodd"/></clipPath><clipPath id="clip2"><path d="M1036.2 730.672 1357.17 654.006 1433.84 974.977 1112.87 1051.64Z" fill-rule="evenodd" clip-rule="evenodd"/></clipPath></defs><g transform="translate(-1036 -654)"><g clip-path="url(#clip0)"><g clip-path="url(#clip1)"><g clip-path="url(#clip2)"><path d="M1284.88 678.342 1284.88 678.342C1289.3 686.476 1297.4 692.315 1306.72 694.33L1306.72 694.33C1299.32 700.339 1295.06 709.132 1294.46 718.464L1294.46 718.464C1290.04 710.33 1281.94 704.492 1272.62 702.476L1272.62 702.476C1280.02 696.467 1284.61 687.594 1284.88 678.342Z" fill="#0070C0"/><path d="M1088.47 803.009 1088.47 803.009C1092.88 811.143 1100.99 816.981 1110.31 818.997L1110.31 818.997C1102.91 825.005 1098.65 833.798 1098.05 843.13L1098.05 843.13C1093.63 834.996 1085.52 829.158 1076.21 827.143L1076.21 827.143C1083.61 821.134 1088.2 812.261 1088.47 803.009Z" fill="#0070C0"/><path d="M1105.6 728.234 1105.6 728.234C1109.36 735.11 1116.15 739.851 1123.63 741.597L1123.63 741.597C1117.41 746.617 1113.83 753.834 1113.58 761.668L1113.58 761.668C1109.82 754.792 1103.03 750.051 1095.55 748.305L1095.55 748.305C1101.43 743.365 1105.35 736.069 1105.6 728.234Z" fill="#0070C0"/><path d="M1339.04 729.021 1339.04 729.021C1342.8 735.897 1349.59 740.638 1357.08 742.384L1357.08 742.384C1350.85 747.405 1347.28 754.621 1347.03 762.456L1347.03 762.456C1343.26 755.579 1336.48 750.839 1328.99 749.092L1328.99 749.092C1334.88 744.152 1338.79 736.856 1339.04 729.021Z" fill="#0070C0"/><path d="M1228.23 824.406C1225.56 825.044 1222.66 823.263 1222.02 820.588L1214.03 787.154C1213.39 784.479 1215.17 781.58 1217.85 780.941 1220.52 780.302 1223.42 782.083 1224.06 784.758L1232.05 818.192C1232.69 820.867 1230.91 823.767 1228.23 824.406Z" fill="#0070C0"/><path d="M1215.45 770.91C1212.78 771.549 1209.88 769.768 1209.24 767.093L1202.85 740.346C1202.21 737.671 1203.99 734.771 1206.67 734.132 1209.34 733.494 1212.24 735.275 1212.88 737.95L1219.27 764.697C1219.91 767.372 1218.13 770.271 1215.45 770.91Z" fill="#0070C0"/><path d="M1204.27 724.102C1201.6 724.741 1198.7 722.96 1198.06 720.285L1194.87 706.911C1194.23 704.236 1196.01 701.337 1198.68 700.698 1201.36 700.059 1204.26 701.841 1204.9 704.515L1208.09 717.889C1208.73 720.564 1206.95 723.463 1204.27 724.102Z" fill="#0070C0"/><path d="M1259.42 792.217C1259.08 792.297 1258.75 792.376 1258.42 792.456 1255.58 792.427 1253.27 790.151 1253.3 787.317L1252.75 759.88C1252.78 757.046 1255.06 754.735 1257.89 754.765 1260.73 754.795 1263.04 757.07 1263.01 759.905L1263.56 787.341C1263.37 789.507 1261.76 791.658 1259.42 792.217Z" fill="#0070C0"/><path d="M1258.51 744.016C1258.17 744.096 1257.84 744.175 1257.5 744.255 1254.67 744.225 1252.36 741.95 1252.39 739.116L1252.39 739.116 1252.02 718.351C1252.05 715.517 1254 713.286 1257.08 712.901 1259.92 712.931 1262.15 714.872 1262.53 717.961 1262.53 717.961 1262.53 717.961 1262.61 718.296L1262.98 739.06C1262.46 741.306 1260.85 743.457 1258.51 744.016Z" fill="#0070C0"/><path d="M1291.26 777.544C1288.58 778.183 1285.68 776.401 1285.04 773.727 1284.8 772.724 1284.9 771.641 1285.33 770.478L1300.16 731.947C1301.27 729.208 1304.2 728.154 1306.94 729.267 1309.34 730.46 1310.65 732.975 1309.87 735.635L1295.04 774.165C1294.44 776.077 1292.93 777.145 1291.26 777.544Z" fill="#0070C0"/><path d="M1185.86 809.786C1183.52 810.345 1181.12 809.153 1179.89 806.972L1165.04 775.883C1163.73 773.368 1165.1 770.214 1167.62 768.907 1170.13 767.599 1173.21 768.632 1174.18 771.227L1189.03 802.315C1190.33 804.831 1189.3 807.905 1186.79 809.212 1186.53 809.626 1186.2 809.706 1185.86 809.786Z" fill="#0070C0"/><path d="M1162.04 760.344C1159.7 760.903 1157.29 759.71 1156.06 757.529L1150.27 745.129C1148.97 742.614 1150 739.54 1152.51 738.232 1155.03 736.924 1158.1 737.957 1159.41 740.472 1159.41 740.472 1159.41 740.472 1159.49 740.807L1165.28 753.207C1166.59 755.722 1165.55 758.796 1163.04 760.104L1163.04 760.104C1162.71 760.184 1162.37 760.264 1162.04 760.344L1162.04 760.344Z" fill="#0070C0"/><path d="M1150.83 811.085C1149.16 811.484 1147.33 811.215 1146.34 810.037L1115.7 782.368C1113.8 780.347 1113.75 777.178 1115.69 774.947 1117.71 773.051 1120.47 772.746 1122.7 774.688L1153.34 802.357C1155.57 804.298 1155.62 807.467 1153.68 809.698 1152.76 810.272 1151.83 810.846 1150.83 811.085Z" fill="#0070C0"/><path d="M1408.53 931.189 1372.63 825.257C1371.5 821.993 1367.85 820.037 1364.51 820.836 1363.17 821.155 1361.16 821.635 1359.49 822.034L1353.19 803.041 1347.09 804.144C1341.99 805.008 1337.06 806.54 1332.46 807.992L1326.47 790.337 1321.22 790.532C1285.07 794.571 1252.76 814.658 1233.26 845.469 1201.94 826.797 1164.04 823.48 1129.97 836.212L1125.2 838.413 1127.84 856.867C1122.74 857.731 1117.98 858.514 1113.05 860.047L1107.44 861.739 1110.4 881.53C1108.4 882.009 1106.73 882.408 1105.39 882.728 1102.04 883.526 1099.67 886.92 1100.14 890.343L1115.98 1001.07C1116.19 1004.9 1119.67 1007.61 1123.42 1007.06 1123.76 1006.98 1124.09 1006.9 1124.43 1006.83 1144.66 1001.28 1202.15 988.966 1255.9 1008.29 1258.56 1009.07 1261.14 1009.51 1263.81 1008.87L1280.53 1004.88C1283.2 1004.24 1285.38 1003.01 1287.07 1001.2 1328.62 959.113 1383.8 944.519 1403.68 940.476 1407.36 939.597 1409.73 936.204 1409.19 932.446 1408.61 931.523 1408.61 931.523 1408.53 931.189ZM1242.82 855.908C1258.95 828.731 1285.99 810.255 1316.82 804.66L1350.6 906.15C1335.61 912.913 1297.21 932.686 1270.14 970.254L1242.82 855.908ZM1140.36 847.16C1170.39 838.221 1202.86 842.482 1229.53 859.437L1256.84 973.783C1215.71 952.507 1172.53 952.219 1156.09 952.964L1140.36 847.16ZM1137.81 978.535 1122.85 871.489C1124.85 871.01 1127.27 870.785 1129.95 870.146L1144.43 967.765 1150.94 966.917C1151.61 966.757 1209.87 960.616 1258.67 990.311L1258.67 990.311C1206.88 967.338 1157.03 974.651 1137.81 978.535ZM1276.22 986.827 1276.22 986.827C1306.91 937.791 1361.25 916.684 1361.58 916.604L1367.77 914.418 1336.57 820.792C1339.17 819.819 1341.51 819.26 1343.52 818.781L1378.54 921.035C1359.64 926.256 1311.95 942.596 1276.22 986.827Z" fill="#0070C0"/></g></g></g><path d="M213.385 147.796C223.564 148.061 233.597 148.179 243.41 148.179 253.089 148.179 262.641 148.309 272.058 148.44 273.04 164.812 273.8 180.711 274.416 196.218 275.043 212.221 275.043 227.007 274.416 240.526 274.061 246.732 273.8 252.811 273.435 258.52 273.04 264.361 272.558 269.575 271.928 273.91 271.315 278.259 270.424 281.86 269.091 284.582 267.849 287.452 265.977 288.813 263.622 288.931 259.894 289.179 256.164 286.953 252.697 281.977 249.231 277.263 245.868 270.819 242.533 262.738 239.197 255.05 236.082 245.867 232.984 235.678 230.001 225.633 227.385 215.339 224.896 204.902 222.411 194.605 220.097 184.416 218.198 174.619 216.239 164.691 214.628 155.867 213.385 147.796ZM135.452 20.5863C144.545 23.4029 152.224 28.365 158.675 35.8319 165.242 43.1646 170.842 52.0191 175.681 62.42 180.354 72.7132 184.473 84.0287 187.848 96.4442 191.184 108.964 194.024 121.618 196.379 134.151 188.331 134.151 180.521 133.785 173.066 133.533 165.607 133.168 158.048 132.789 150.235 132.41 150.499 128.819 150.499 125.849 149.843 123.109 147.75 114.412 142.676 107.72 134.866 102.992 127.538 98.5399 121.218 96.1829 115.856 96.0521 110.662 96.0521 106.697 96.575 104.081 97.4268 97.5133 99.6529 93.4205 104.105 92.0441 110.942 91.1969 115.656 92.178 120.266 95.2896 125.101 98.2601 130.063 102.838 134.151 108.924 137.765 113.147 140.373 119.714 142.348 129.042 143.726 125.93 147.196 121.586 150.418 115.766 153.402 109.811 156.376 103.207 157.241 96.2708 155.759 84.1304 153.024 75.1681 148.061 68.9957 140.752 62.9104 133.654 58.9483 125.467 57.4412 116.417 55.9374 107.355 56.1987 98.1478 58.2014 88.8101 60.1908 79.7709 62.9104 71.4556 66.6411 64.2504 69.478 58.4231 73.2054 52.3346 77.526 45.9172 81.8797 39.5635 86.8529 34.142 92.6736 29.3476 98.1294 24.7776 104.58 21.5689 111.8 19.5907 118.864 17.6259 126.651 17.8236 135.452 20.5863ZM352.189 13.5019C352.058 13.5019 351.968 13.371 351.968 13.371 351.797 13.371 351.707 13.2402 351.576 13.2402 351.445 13.2402 351.339 13.1098 351.208 13.2402 349.222 12.6504 347.129 11.9931 344.995 11.6679 335.681 9.63618 326.652 9.50536 318.085 11.1449 291.162 16.3954 278.509 34.863 273.04 57.9638 267.219 82.3927 269.312 111.924 271.054 135.763 261.398 135.394 251.716 135.16 241.682 135.16 231.608 135.015 221.43 134.898 211.265 134.898 208.911 121.618 205.927 108.964 202.829 96.8367 199.624 84.8804 196.024 73.6954 191.315 63.2681 178.166 33.4077 157.693 14.3536 129.762 5.31445 129.501 5.18363 129.266 5.18363 129.042 5.05281 105.953-2.0183 83.6077-1.88748 61.6679 6.29668 51.7244 10.0319 42.6985 15.2824 34.6137 21.8168 26.1773 28.6267 19.1108 36.6833 13.2901 46.1785 6.94339 56.7199 2.59976 67.6705 0.888365 79.3784-0.984024 91.2978-0.119844 102.862 3.47729 113.93 7.46934 125.849 14.8975 136.142 25.3269 145.453 35.8562 154.754 49.9863 161.838 67.6226 166.67 86.2233 171.766 102.838 172.131 117.229 167.417 129.893 163.33 139.21 156.376 145.395 146.697 145.62 146.435 145.787 146.07 145.881 145.701 154.947 146.2 163.645 146.566 171.954 147.066 180.156 147.575 189.051 147.796 198.603 147.679 201.848 165.804 205.184 184.312 208.416 203.658 211.882 223.51 216.721 241.77 222.937 258.008 226.049 266.208 229.515 273.659 232.984 280.129 236.451 286.587 240.53 292.401 244.887 297.497 255.052 308.904 266.827 316.109 280.106 318.845 290.676 320.94 299.468 318.466 306.44 311.391 312.13 305.551 316.082 296.984 318.698 286.077 321.183 275.402 322.429 261.126 322.429 243.617 322.429 229.368 321.944 214.095 320.57 198.076 296.628-69.6523 409.988 68.6527 372.769 134.781 371.554 136.9 370.177 139.009 368.543 140.856 364.095 139.612 359.752 138.878 355.565 138.499 351.339 138.12 346.995 137.765 342.51 137.765 335.574 137.765 329.727 139.874 325.148 144.091 321.053 147.927 319.328 153.154 319.94 159.337 320.309 162.834 321.552 166.539 323.672 170.167 325.765 173.875 328.876 177.11 332.828 179.95 332.828 179.95 332.959 180.332 333.458 180.711 339.54 185.177 347.35 187.521 356.767 188.151 366.359 188.765 375.907 186.29 385.329 180.711 394.877 189.761 403.055 200.184 409.623 211.973 427.742 244.257 426.63 283.982 404.65 320.075 375.02 369.215 305.549 382.012 246.26 361.791 184.342 340.561 141.169 286.587 172.831 218.431 176.924 209.616 182.249 203.172 188.438 198.94 190.558 197.462 191.539 195.588 191.315 193.744 189.419 180.828 142.91 157.003 132.378 229.233 119.976 314.758 163.514 369.976 226.142 392.188 286.449 413.653 357.032 401.619 405.045 368.232 446.45 339.314 464.347 296.384 462.84 256.673 461.624 219.544 443.61 183.068 409.623 159.468 429.349 131.807 427.742 98.5399 415.092 71.1943 402.818 44.8042 379.467 22.3401 352.189 13.5019L352.189 13.5019" fill="#0070C0" fill-rule="evenodd" transform="matrix(1 0 0 -1 1235 1132)"/></g></svg>